<mxfile host="app.diagrams.net" modified="2023-04-27T07:39:47.575Z" agent="Mozilla/5.0 (Windows NT 10.0; Win64; x64) AppleWebKit/537.36 (KHTML, like Gecko) Chrome/112.0.0.0 Safari/537.36 Edg/112.0.1722.58" version="21.2.2" etag="yvso0V4yqDdYJlCp8vq4" type="github">
  <diagram name="Страница 1" id="u-sbfwJLnuA_nyr79iu4">
    <mxGraphModel>
      <root>
        <mxCell id="0" />
        <mxCell id="1" parent="0" />
      </root>
    </mxGraphModel>
  </diagram>
</mxfile>
